<?xml version="1.0" encoding="iso-8859-1"?>
<!-- Generator: Adobe Illustrator 17.1.0, SVG Export Plug-In . SVG Version: 6.00 Build 0)  -->
<!DOCTYPE svg PUBLIC "-//W3C//DTD SVG 1.1//EN" "http://www.w3.org/Graphics/SVG/1.1/DTD/svg11.dtd">
<svg version="1.1" id="Capa_1" xmlns="http://www.w3.org/2000/svg" xmlns:xlink="http://www.w3.org/1999/xlink" x="0px" y="0px"
	 viewBox="0 0 549.93 549.93" style="enable-background:new 0 0 549.93 549.93;" xml:space="preserve">
<path d="M339.807,318.538c11.723-6.431,22.849-14.583,33.328-24.457c23.428-22.073,43.623-52.703,60.025-91.039
	c23.046-53.862,31.958-106.95,34.463-124.729c0.595-2.473,0.836-4.791,0.843-6.901c0-0.017,0.001-0.035,0.001-0.052
	c0-0.013,0.001-0.026,0.001-0.039c0-20.501-21.146-39.047-59.545-52.222C373.028,6.782,325.455,0,274.965,0
	s-98.063,6.782-133.958,19.099C102.608,32.273,81.462,50.819,81.462,71.32c0,0.019,0.002,0.037,0.002,0.055
	c0,0.053,0.004,0.106,0.005,0.158c0.017,2.39,0.324,4.753,0.91,7.083c2.625,18.021,11.64,70.781,33.514,124.311
	c15.651,38.3,34.675,68.907,56.541,90.973c11.481,11.585,23.747,20.817,36.732,27.678L174.5,480.994
	c-0.016,0.072-0.033,0.144-0.047,0.216l-6.972,32.063c-0.124,0.569-0.172,1.137-0.165,1.696c0,0.038-0.006,0.075-0.006,0.113
	c0,11.316,11.729,20.258,34.859,26.573c19.542,5.337,45.395,8.275,72.796,8.275c27.4,0,53.254-2.938,72.796-8.275
	c23.131-6.315,34.859-15.257,34.859-26.573c0-0.04-0.005-0.079-0.006-0.119c0.007-0.56-0.043-1.129-0.168-1.7l-7.021-32.065
	c-0.005-0.026-0.012-0.052-0.017-0.078l-8.318-37.984c-0.005-0.022-0.01-0.045-0.015-0.067L339.807,318.538z M195.576,454.665
	c19.733,6.481,48.504,10.254,79.388,10.254c30.828,0,59.569-3.763,79.301-10.226l5.312,24.255
	c-14.072,7.045-43.949,13.476-84.613,13.476c-40.725,0-70.612-6.444-84.664-13.501L195.576,454.665z M301.589,313.434
	c5.045-9.669,9.615-22.47,13.817-38.594c7.021-26.938,12.867-62.82,17.392-106.713c17.688-1.966,34.363-4.815,49.559-8.43
	c-9.43,42.559-21.611,77.603-36.264,104.288C332.93,287.953,318.036,304.476,301.589,313.434z M300.892,271.057
	c-11.189,42.928-22.332,49.445-26.713,50.215c-0.51,0.017-1.019,0.035-1.53,0.047c-3.094-0.471-13.67-5.519-24.575-50.158
	c-6.262-25.635-11.579-59.781-15.824-101.591c13.802,1.106,28.106,1.688,42.715,1.688c14.57,0,28.836-0.578,42.602-1.677
	C313.167,211.348,307.564,245.456,300.892,271.057z M217.029,168.115c4.363,43.852,9.899,79.698,16.473,106.606
	c4.31,17.643,9.033,31.316,14.303,41.263c-43.948-21.134-68.339-100.215-80.417-156.333
	C182.605,163.28,199.308,166.141,217.029,168.115z M419.37,197.142c-21.507,50.266-48.688,85.42-81.225,105.201
	c30.811-35.782,49.397-94.124,60.494-146.982c16.061-4.769,29.956-10.481,40.99-16.959
	C434.633,156.637,428.02,176.926,419.37,197.142z M274.965,15c104.77,0,177.9,29.442,178.489,55.997
	c-0.088,0.725-0.276,2.218-0.58,4.375c-2.16,7.768-10.371,15.854-23.702,23.168c-3.632,1.992-4.96,6.551-2.968,10.183
	c1.992,3.631,6.55,4.961,10.183,2.968c4.324-2.372,8.082-4.768,11.358-7.162c-0.724,3.512-1.527,7.232-2.416,11.131
	c-10.709,10.552-30.145,19.68-55.088,26.593c-0.108,0.029-0.217,0.057-0.323,0.091c-31.686,8.74-72.196,13.915-114.954,13.915
	c-42.811,0-83.376-5.191-115.086-13.955c-0.039-0.012-0.079-0.021-0.119-0.033c-24.936-6.904-44.378-16.02-55.108-26.559
	c-0.885-3.933-1.687-7.685-2.412-11.226c9.733,7.122,22.741,13.559,38.767,19.058c35.895,12.316,83.468,19.099,133.958,19.099
	c42.846,0,83.302-4.815,116.995-13.927c3.998-1.082,6.363-5.199,5.282-9.198c-1.082-3.998-5.203-6.361-9.198-5.282
	c-32.435,8.771-71.537,13.407-113.079,13.407c-99.391,0-170.304-26.497-177.828-51.89c-0.346-2.362-0.561-3.992-0.661-4.775
	C97.102,44.427,170.222,15,274.965,15z M129.887,197.519c-8.331-20.347-14.771-40.797-19.674-59.168
	c11.016,6.48,24.895,12.196,40.941,16.969c11.121,54.616,29.69,115.077,60.241,150.478
	C178.932,286.849,151.644,250.656,129.887,197.519z M269.196,336.363c0.396,0,0.788-0.011,1.183-0.013
	c0.198,0.002,0.393,0.013,0.593,0.013c0.474,0,0.94-0.022,1.412-0.03c0.269,0.01,0.535,0.03,0.806,0.03
	c0.812,0,1.611-0.055,2.404-0.136c17.698-0.711,34.503-4.392,50.323-10.999l25.122,114.727c-18.012,6.202-46.319,9.963-76.074,9.963
	c-29.827,0-58.177-3.776-76.182-10l24.352-111.984C237.701,333.538,253.08,336.363,269.196,336.363z M343.81,527.185
	c-18.291,4.994-42.741,7.745-68.845,7.745c-26.104,0-50.554-2.751-68.845-7.745c-18.272-4.99-23.14-10.354-23.741-11.832
	l4.66-21.431c19.271,8.348,51.992,13.503,87.925,13.503c35.903,0,68.618-5.15,87.894-13.49l4.69,21.42
	C366.946,516.834,362.075,522.197,343.81,527.185z"/>
<g>
</g>
<g>
</g>
<g>
</g>
<g>
</g>
<g>
</g>
<g>
</g>
<g>
</g>
<g>
</g>
<g>
</g>
<g>
</g>
<g>
</g>
<g>
</g>
<g>
</g>
<g>
</g>
<g>
</g>
</svg>
